<?xml version="1.0" encoding="utf-8"?>
<!-- Generator: Adobe Illustrator 24.0.3, SVG Export Plug-In . SVG Version: 6.00 Build 0)  -->
<svg version="1.1" id="Layer_1" xmlns="http://www.w3.org/2000/svg" xmlns:xlink="http://www.w3.org/1999/xlink" x="0px" y="0px"
	 viewBox="0 0 1000 491.5" style="enable-background:new 0 0 1000 491.5;" xml:space="preserve">
<style type="text/css">
	.st0{fill:#231F20;}
</style>
<g>
	<path class="st0" d="M418.6,169.3l0.1-37.6c2.3-24.4-3.1-44-15.9-58.2c-15.5-17-40.4-25.4-76.2-25.4v22.8c28.6,0,48.5,6,59.2,17.9
		c6.9,7.6,10.2,18,10.3,31.2c-38.6-2-84.3,4.3-93.2,44.2c-3.1,13.6,1.4,28.5,11.5,38.7c7.9,7.9,18.3,12.1,29.5,12.1
		c3.4,0,6.8-0.3,10.3-1.1c10.1-2.2,29.5-11.4,44.8-27.3c6.2,18.4,20.1,27.5,42.5,27.5v-22.8C425.6,191.2,420.4,186.3,418.6,169.3z
		 M349.4,191.6c-9.4,2.1-15.4-1.5-18.7-4.8c-4.6-4.7-6.8-11.5-5.4-17.5c4.5-19.9,28.3-28.7,70.5-26.3v7.1
		C387.1,175.6,357.2,189.8,349.4,191.6z"/>
	<path class="st0" d="M494.7,170.6c-10.6-10.9-15.4-25.1-14.4-42.3c2.4-38.1,26.8-57.5,72.5-57.5V48c-57.5,0-92.2,28.8-95.3,78.9
		c-1.5,23.5,5.7,44.2,20.8,59.7c17.2,17.7,43.4,27.2,74.2,27.2c1.7,0,3.5,0,5.2-0.1l-0.8-22.8C530.4,191.8,508.3,184.6,494.7,170.6z
		"/>
	<path class="st0" d="M843.9,90.4c2.2-23.8-17-40-37.2-43.5c-12.1-2.2-32.8,2.2-49.5,16.7c-13.1,11.4-28.4,33-27,71.6
		c1.9,52.5,33.2,78.9,93,78.9c2.4,0,4.9-0.1,7.5-0.1c1.8-0.1,3.4-0.1,4.6-0.1v-22.8c-1.5,0-3.3,0.1-5.4,0.1
		c-32.6,1.1-66-3.2-74.7-40.2C827.7,145.5,842,110.9,843.9,90.4z M753.1,128.1c0.5-20.5,7.1-36.7,19.2-47.3
		c10.4-9.1,21.9-11.6,28-11.6c1,0,1.8,0.1,2.4,0.2c6.9,1.2,19.6,6.7,18.4,18.9C818.5,117,783.9,125.8,753.1,128.1z"/>
	<path class="st0" d="M887,422.1c72.5-5.4,86.8-40,88.7-60.5c2.2-23.8-17-40-37.2-43.5c-12.2-2.2-32.8,2.2-49.5,16.7
		c-13.1,11.4-28.4,33-27,71.6c1.9,52.5,33.2,78.9,93,78.9c2.4,0,4.9-0.1,7.5-0.1c1.8-0.1,3.4-0.1,4.6-0.1v-22.8
		c-1.5,0-3.3,0.1-5.4,0.1C929.1,463.6,895.7,459.2,887,422.1z M884.9,399.4c0.5-20.5,7.1-36.7,19.2-47.3c10.4-9.1,22-11.6,28-11.6
		c1,0,1.8,0.1,2.4,0.2c6.8,1.2,19.6,6.7,18.4,18.9C950.3,388.3,915.7,397.2,884.9,399.4z"/>
	<polygon class="st0" points="256.2,333.3 239.7,317.4 170.7,389.3 170.7,319.4 147.9,319.4 147.9,485.1 170.7,485.1 170.7,412.1 
		245.3,489.1 261.8,473.1 191.5,400.6 	"/>
	<path class="st0" d="M549.7,335.8c-15.6-15.2-35.3-21.2-57.2-16.5c-14.2,3.1-25.2,12.8-30,26.7c-5.5,15.9-2.2,34,8.8,47.3
		c6.1,7.4,15.5,14.1,27,19.1l-44.3,62l18.6,13.3l49-68.7c5.9,1,12,1.6,18.4,1.6c3.1,0,6.4-0.3,9.6-0.6v65h22.8V319.4h-22.8
		C549.7,319.4,549.7,335.8,549.7,335.8z M488.9,378.8c-5.8-7.1-7.8-16.9-4.8-25.2c1.5-4.5,5.1-10.1,13.3-11.9
		c22.7-4.9,40.2,6.6,52.2,34.2l0.1-0.1v21.5C521,400.3,497.5,389.1,488.9,378.8z"/>
	<polygon class="st0" points="805.9,273.6 805.9,273.6 660.5,474.4 679,487.8 805.9,312.5 805.9,485.1 828.8,485.1 828.8,273.6 	"/>
	<polygon class="st0" points="581.8,70.9 635.3,70.9 635.3,213.6 658.1,213.6 658.1,70.9 711.7,70.9 711.7,48 581.8,48 	"/>
	<polygon class="st0" points="244.7,3.5 244.2,3.3 168,117.9 168,2.5 145.2,2.5 145.2,3.2 144.2,2.6 5,210.1 24,222.8 145.2,42.1 
		145.2,159.9 168,159.9 168,159.1 244.7,43.8 244.7,214.6 267.6,214.6 267.6,2.5 244.7,2.5 	"/>
	<path class="st0" d="M48,442c-10.6-10.9-15.4-25.1-14.4-42.3c2.4-38.1,26.8-57.5,72.5-57.5v-22.8c-57.5,0-92.2,28.8-95.3,78.9
		c-1.5,23.5,5.7,44.2,20.8,59.7c17.2,17.7,43.4,27.2,74.2,27.2c1.7,0,3.5,0,5.2-0.1l-0.8-22.8C83.7,463.1,61.6,455.9,48,442z"/>
	<path class="st0" d="M399.6,440.6l0.1-37.6c2.3-24.4-3.1-44-15.9-58.2c-15.5-17-40.4-25.4-76.2-25.4v22.8c28.6,0,48.5,6,59.3,17.9
		c6.9,7.6,10.2,18,10.3,31.2c-38.6-2-84.3,4.3-93.2,44.2c-3.1,13.6,1.4,28.5,11.6,38.7c7.9,7.9,18.3,12.1,29.5,12.1
		c3.4,0,6.8-0.3,10.3-1.1c10.1-2.2,29.5-11.4,44.8-27.3c6.2,18.4,20.1,27.5,42.5,27.5v-22.8C406.6,462.5,401.3,457.6,399.6,440.6z
		 M330.4,462.9c-9.4,2.1-15.4-1.5-18.7-4.8c-4.6-4.7-6.8-11.5-5.4-17.5c4.5-19.9,28.3-28.7,70.5-26.3v7.1
		C368.1,447,338.2,461.2,330.4,462.9z"/>
	<path class="st0" d="M954.6,46.7c-18.2-0.5-33.7,5.7-45.6,17.3V48h-22.8v166H909v-57.6c37.9-1.2,68.2-20.5,79.6-40.7
		c8.5-15,8.5-33.4,0.3-48.1C981.7,54.8,969.2,47.2,954.6,46.7z M968.7,104.5c-6.8,12.1-29.3,27.8-59.7,29.1v-22.8
		c7.1-28,22.2-42,44.8-41.1c8.3,0.3,12.9,5.2,15.2,9.4C973.3,86.4,973.2,96.6,968.7,104.5z"/>
</g>
</svg>
